<mxfile host="app.diagrams.net" agent="Mozilla/5.0 (Macintosh; Intel Mac OS X 10_15_7) AppleWebKit/537.36 (KHTML, like Gecko) Chrome/133.0.0.0 Safari/537.36" version="26.0.11">
  <diagram name="第 1 页" id="3HhJ0oC6Rnvjwi23qlxe">
    <mxGraphModel dx="1341" dy="724" grid="1" gridSize="10" guides="1" tooltips="1" connect="1" arrows="1" fold="1" page="1" pageScale="1" pageWidth="4800" pageHeight="4800" math="0" shadow="0">
      <root>
        <mxCell id="0" />
        <mxCell id="1" parent="0" />
        <mxCell id="a4pm1cC5Z6HbGnXKBDq_-6" value="" style="rounded=0;whiteSpace=wrap;html=1;fillColor=#f5f5f5;fontColor=#333333;strokeColor=#666666;" vertex="1" parent="1">
          <mxGeometry x="1025" y="480" width="745" height="360" as="geometry" />
        </mxCell>
        <mxCell id="a4pm1cC5Z6HbGnXKBDq_-8" value="&lt;font style=&quot;font-size: 24px;&quot;&gt;docker&lt;/font&gt;" style="text;html=1;align=center;verticalAlign=middle;whiteSpace=wrap;rounded=0;" vertex="1" parent="1">
          <mxGeometry x="1107.5" y="500" width="580" height="40" as="geometry" />
        </mxCell>
        <mxCell id="a4pm1cC5Z6HbGnXKBDq_-26" value="" style="edgeStyle=orthogonalEdgeStyle;rounded=0;orthogonalLoop=1;jettySize=auto;html=1;" edge="1" parent="1" source="a4pm1cC5Z6HbGnXKBDq_-12" target="a4pm1cC5Z6HbGnXKBDq_-16">
          <mxGeometry relative="1" as="geometry" />
        </mxCell>
        <mxCell id="a4pm1cC5Z6HbGnXKBDq_-31" value="/其它请求" style="edgeLabel;html=1;align=center;verticalAlign=middle;resizable=0;points=[];" vertex="1" connectable="0" parent="a4pm1cC5Z6HbGnXKBDq_-26">
          <mxGeometry x="-0.2" y="-1" relative="1" as="geometry">
            <mxPoint as="offset" />
          </mxGeometry>
        </mxCell>
        <mxCell id="a4pm1cC5Z6HbGnXKBDq_-27" style="rounded=0;orthogonalLoop=1;jettySize=auto;html=1;exitX=1;exitY=0.5;exitDx=0;exitDy=0;entryX=0;entryY=0.5;entryDx=0;entryDy=0;" edge="1" parent="1" source="a4pm1cC5Z6HbGnXKBDq_-12" target="a4pm1cC5Z6HbGnXKBDq_-18">
          <mxGeometry relative="1" as="geometry" />
        </mxCell>
        <mxCell id="a4pm1cC5Z6HbGnXKBDq_-34" value="/4XX /5XX" style="edgeLabel;html=1;align=center;verticalAlign=middle;resizable=0;points=[];" vertex="1" connectable="0" parent="a4pm1cC5Z6HbGnXKBDq_-27">
          <mxGeometry x="0.0486" relative="1" as="geometry">
            <mxPoint as="offset" />
          </mxGeometry>
        </mxCell>
        <mxCell id="a4pm1cC5Z6HbGnXKBDq_-37" style="rounded=0;orthogonalLoop=1;jettySize=auto;html=1;exitX=1;exitY=0.5;exitDx=0;exitDy=0;entryX=0;entryY=0.5;entryDx=0;entryDy=0;" edge="1" parent="1" source="a4pm1cC5Z6HbGnXKBDq_-12" target="a4pm1cC5Z6HbGnXKBDq_-14">
          <mxGeometry relative="1" as="geometry" />
        </mxCell>
        <mxCell id="a4pm1cC5Z6HbGnXKBDq_-38" value="/rebuild" style="edgeLabel;html=1;align=center;verticalAlign=middle;resizable=0;points=[];" vertex="1" connectable="0" parent="a4pm1cC5Z6HbGnXKBDq_-37">
          <mxGeometry x="0.0009" y="2" relative="1" as="geometry">
            <mxPoint as="offset" />
          </mxGeometry>
        </mxCell>
        <mxCell id="a4pm1cC5Z6HbGnXKBDq_-12" value="Nginx" style="rounded=0;whiteSpace=wrap;html=1;fillColor=#f8cecc;strokeColor=#b85450;" vertex="1" parent="1">
          <mxGeometry x="1090" y="590" width="80" height="190" as="geometry" />
        </mxCell>
        <mxCell id="a4pm1cC5Z6HbGnXKBDq_-22" value="&lt;span&gt;重新编译&lt;/span&gt;" style="edgeStyle=orthogonalEdgeStyle;rounded=0;orthogonalLoop=1;jettySize=auto;html=1;exitX=1;exitY=0.5;exitDx=0;exitDy=0;entryX=0;entryY=0.5;entryDx=0;entryDy=0;" edge="1" parent="1" source="a4pm1cC5Z6HbGnXKBDq_-14" target="a4pm1cC5Z6HbGnXKBDq_-15">
          <mxGeometry x="0.0085" relative="1" as="geometry">
            <mxPoint as="offset" />
          </mxGeometry>
        </mxCell>
        <mxCell id="a4pm1cC5Z6HbGnXKBDq_-14" value="rebuild" style="rounded=1;whiteSpace=wrap;html=1;fillColor=#dae8fc;strokeColor=#6c8ebf;" vertex="1" parent="1">
          <mxGeometry x="1300" y="590" width="140" height="50" as="geometry" />
        </mxCell>
        <mxCell id="a4pm1cC5Z6HbGnXKBDq_-24" style="edgeStyle=orthogonalEdgeStyle;rounded=0;orthogonalLoop=1;jettySize=auto;html=1;exitX=0.5;exitY=1;exitDx=0;exitDy=0;entryX=0.5;entryY=0;entryDx=0;entryDy=0;" edge="1" parent="1" source="a4pm1cC5Z6HbGnXKBDq_-15" target="a4pm1cC5Z6HbGnXKBDq_-20">
          <mxGeometry relative="1" as="geometry" />
        </mxCell>
        <mxCell id="a4pm1cC5Z6HbGnXKBDq_-29" value="编译" style="edgeLabel;html=1;align=center;verticalAlign=middle;resizable=0;points=[];" vertex="1" connectable="0" parent="a4pm1cC5Z6HbGnXKBDq_-24">
          <mxGeometry y="3" relative="1" as="geometry">
            <mxPoint as="offset" />
          </mxGeometry>
        </mxCell>
        <mxCell id="a4pm1cC5Z6HbGnXKBDq_-15" value="mkdocs" style="rounded=1;whiteSpace=wrap;html=1;fillColor=#e1d5e7;strokeColor=#9673a6;" vertex="1" parent="1">
          <mxGeometry x="1557" y="590" width="140" height="50" as="geometry" />
        </mxCell>
        <mxCell id="a4pm1cC5Z6HbGnXKBDq_-16" value="静态文件" style="rounded=1;whiteSpace=wrap;html=1;fillColor=#dae8fc;strokeColor=#6c8ebf;" vertex="1" parent="1">
          <mxGeometry x="1300" y="660" width="140" height="50" as="geometry" />
        </mxCell>
        <mxCell id="a4pm1cC5Z6HbGnXKBDq_-18" value="https://http.cat" style="rounded=1;whiteSpace=wrap;html=1;fillColor=#dae8fc;strokeColor=#6c8ebf;" vertex="1" parent="1">
          <mxGeometry x="1300" y="730" width="140" height="50" as="geometry" />
        </mxCell>
        <mxCell id="a4pm1cC5Z6HbGnXKBDq_-32" style="edgeStyle=orthogonalEdgeStyle;rounded=0;orthogonalLoop=1;jettySize=auto;html=1;exitX=0;exitY=0.5;exitDx=0;exitDy=0;entryX=1;entryY=0.5;entryDx=0;entryDy=0;" edge="1" parent="1" source="a4pm1cC5Z6HbGnXKBDq_-20" target="a4pm1cC5Z6HbGnXKBDq_-16">
          <mxGeometry relative="1" as="geometry" />
        </mxCell>
        <mxCell id="a4pm1cC5Z6HbGnXKBDq_-33" value="&lt;span style=&quot;text-align: right;&quot;&gt;编译成静态文件&lt;/span&gt;" style="edgeLabel;html=1;align=center;verticalAlign=middle;resizable=0;points=[];" vertex="1" connectable="0" parent="a4pm1cC5Z6HbGnXKBDq_-32">
          <mxGeometry x="0.0085" y="-1" relative="1" as="geometry">
            <mxPoint as="offset" />
          </mxGeometry>
        </mxCell>
        <mxCell id="a4pm1cC5Z6HbGnXKBDq_-20" value="markdown 文件" style="rounded=1;whiteSpace=wrap;html=1;fillColor=#fff2cc;strokeColor=#d6b656;" vertex="1" parent="1">
          <mxGeometry x="1557" y="660" width="140" height="50" as="geometry" />
        </mxCell>
        <mxCell id="a4pm1cC5Z6HbGnXKBDq_-42" style="rounded=0;orthogonalLoop=1;jettySize=auto;html=1;exitX=1;exitY=0.5;exitDx=0;exitDy=0;entryX=0;entryY=0.5;entryDx=0;entryDy=0;" edge="1" parent="1" source="a4pm1cC5Z6HbGnXKBDq_-40" target="a4pm1cC5Z6HbGnXKBDq_-12">
          <mxGeometry relative="1" as="geometry" />
        </mxCell>
        <mxCell id="a4pm1cC5Z6HbGnXKBDq_-43" value="&lt;font style=&quot;font-size: 18px;&quot;&gt;webhook&lt;/font&gt;" style="edgeLabel;html=1;align=center;verticalAlign=middle;resizable=0;points=[];" vertex="1" connectable="0" parent="a4pm1cC5Z6HbGnXKBDq_-42">
          <mxGeometry x="-0.1588" y="-2" relative="1" as="geometry">
            <mxPoint as="offset" />
          </mxGeometry>
        </mxCell>
        <mxCell id="a4pm1cC5Z6HbGnXKBDq_-40" value="" style="shape=image;html=1;verticalAlign=top;verticalLabelPosition=bottom;labelBackgroundColor=#ffffff;imageAspect=0;aspect=fixed;image=https://cdn1.iconfinder.com/data/icons/picons-social/57/github-128.png" vertex="1" parent="1">
          <mxGeometry x="770" y="480" width="128" height="128" as="geometry" />
        </mxCell>
        <mxCell id="a4pm1cC5Z6HbGnXKBDq_-44" style="rounded=0;orthogonalLoop=1;jettySize=auto;html=1;exitX=1;exitY=0.3333333333333333;exitDx=0;exitDy=0;exitPerimeter=0;entryX=0;entryY=0.5;entryDx=0;entryDy=0;" edge="1" parent="1" source="a4pm1cC5Z6HbGnXKBDq_-41" target="a4pm1cC5Z6HbGnXKBDq_-12">
          <mxGeometry relative="1" as="geometry" />
        </mxCell>
        <mxCell id="a4pm1cC5Z6HbGnXKBDq_-45" value="&lt;font style=&quot;font-size: 18px;&quot;&gt;访问项目&lt;/font&gt;" style="edgeLabel;html=1;align=center;verticalAlign=middle;resizable=0;points=[];" vertex="1" connectable="0" parent="a4pm1cC5Z6HbGnXKBDq_-44">
          <mxGeometry x="0.0034" relative="1" as="geometry">
            <mxPoint as="offset" />
          </mxGeometry>
        </mxCell>
        <mxCell id="a4pm1cC5Z6HbGnXKBDq_-41" value="Actor" style="shape=umlActor;verticalLabelPosition=bottom;verticalAlign=top;html=1;outlineConnect=0;fillColor=#dae8fc;strokeColor=#6c8ebf;" vertex="1" parent="1">
          <mxGeometry x="809" y="700" width="50" height="90" as="geometry" />
        </mxCell>
      </root>
    </mxGraphModel>
  </diagram>
</mxfile>
